# Blender v2.68 (sub 0) OBJ File: ''
# www.blender.org
o Cylinder
v 0.000000 0.004667 -1.150607
v 0.000000 2.305881 -1.150607
v 0.224472 0.004667 -1.128498
v 0.224472 2.305881 -1.128498
v 0.440318 0.004667 -1.063022
v 0.440318 2.305881 -1.063022
v 0.639243 0.004667 -0.956695
v 0.639243 2.305881 -0.956695
v 0.813602 0.004667 -0.813602
v 0.813602 2.305881 -0.813602
v 0.956695 0.004667 -0.639243
v 0.956695 2.305881 -0.639243
v 1.063022 0.004667 -0.440318
v 1.063022 2.305881 -0.440318
v 1.128498 0.004667 -0.224472
v 1.128498 2.305881 -0.224472
v 1.150607 0.004667 -0.000000
v 1.150607 2.305881 -0.000000
v 1.128498 0.004667 0.224472
v 1.128498 2.305881 0.224472
v 1.063022 0.004667 0.440318
v 1.063022 2.305881 0.440318
v 0.956695 0.004667 0.639243
v 0.956695 2.305881 0.639243
v 0.813602 0.004667 0.813602
v 0.813602 2.305881 0.813602
v 0.639243 0.004667 0.956695
v 0.639243 2.305881 0.956695
v 0.440318 0.004667 1.063022
v 0.440318 2.305881 1.063022
v 0.224472 0.004667 1.128498
v 0.224472 2.305881 1.128498
v -0.000000 0.004667 1.150607
v -0.000000 2.305881 1.150607
v -0.224473 0.004667 1.128498
v -0.224473 2.305881 1.128498
v -0.440319 0.004667 1.063022
v -0.440319 2.305881 1.063022
v -0.639243 0.004667 0.956694
v -0.639243 2.305881 0.956694
v -0.813602 0.004667 0.813601
v -0.813602 2.305881 0.813601
v -0.956695 0.004667 0.639242
v -0.956695 2.305881 0.639242
v -1.063022 0.004667 0.440317
v -1.063022 2.305881 0.440317
v -1.128498 0.004667 0.224471
v -1.128498 2.305881 0.224471
v -1.150607 0.004667 -0.000001
v -1.150607 2.305881 -0.000001
v -1.128498 0.004667 -0.224473
v -1.128498 2.305881 -0.224473
v -1.063022 0.004667 -0.440319
v -1.063022 2.305881 -0.440319
v -0.956694 0.004667 -0.639244
v -0.956694 2.305881 -0.639244
v -0.813601 0.004667 -0.813603
v -0.813601 2.305881 -0.813603
v -0.639242 0.004667 -0.956695
v -0.639242 2.305881 -0.956695
v -0.440317 0.004667 -1.063023
v -0.440317 2.305881 -1.063023
v -0.224471 0.004667 -1.128499
v -0.224471 2.305881 -1.128499
vn 0.098018 0.000000 -0.995185
vn 0.290284 0.000000 -0.956941
vn 0.471397 0.000000 -0.881921
vn 0.634393 0.000000 -0.773011
vn 0.773010 0.000000 -0.634393
vn 0.881921 0.000000 -0.471397
vn 0.956940 0.000000 -0.290284
vn 0.995185 0.000000 -0.098018
vn 0.995185 0.000000 0.098017
vn 0.956940 0.000000 0.290285
vn 0.881922 0.000000 0.471396
vn 0.773010 0.000000 0.634393
vn 0.634393 0.000000 0.773010
vn 0.471397 0.000000 0.881921
vn 0.290284 0.000000 0.956941
vn 0.098017 0.000000 0.995185
vn -0.098017 0.000000 0.995185
vn -0.290285 0.000000 0.956940
vn -0.471397 0.000000 0.881921
vn -0.634394 0.000000 0.773010
vn -0.773011 0.000000 0.634393
vn -0.881922 0.000000 0.471396
vn -0.956941 0.000000 0.290284
vn -0.995185 0.000000 0.098016
vn -0.995185 -0.000000 -0.098018
vn -0.956940 -0.000000 -0.290286
vn -0.881921 -0.000000 -0.471398
vn -0.773010 -0.000000 -0.634394
vn -0.634392 -0.000000 -0.773011
vn -0.471395 -0.000000 -0.881922
vn -0.000000 1.000000 0.000000
vn -0.098017 -0.000000 -0.995185
vn -0.290283 -0.000000 -0.956941
vn 0.000000 -1.000000 -0.000000
s off
f 1//1 2//1 3//1
f 3//2 4//2 5//2
f 5//3 6//3 7//3
f 7//4 8//4 9//4
f 9//5 10//5 11//5
f 11//6 12//6 13//6
f 13//7 14//7 15//7
f 15//8 16//8 17//8
f 17//9 18//9 19//9
f 19//10 20//10 21//10
f 21//11 22//11 23//11
f 23//12 24//12 25//12
f 25//13 26//13 27//13
f 27//14 28//14 29//14
f 29//15 30//15 31//15
f 31//16 32//16 33//16
f 33//17 34//17 35//17
f 35//18 36//18 37//18
f 37//19 38//19 39//19
f 39//20 40//20 41//20
f 41//21 42//21 43//21
f 43//22 44//22 45//22
f 45//23 46//23 47//23
f 47//24 48//24 49//24
f 49//25 50//25 51//25
f 51//26 52//26 53//26
f 53//27 54//27 55//27
f 55//28 56//28 57//28
f 57//29 58//29 59//29
f 59//30 60//30 61//30
f 4//31 2//31 6//31
f 63//32 64//32 1//32
f 61//33 62//33 63//33
f 1//34 3//34 63//34
f 2//1 4//1 3//1
f 4//2 6//2 5//2
f 6//3 8//3 7//3
f 8//4 10//4 9//4
f 10//5 12//5 11//5
f 12//6 14//6 13//6
f 14//7 16//7 15//7
f 16//8 18//8 17//8
f 18//9 20//9 19//9
f 20//10 22//10 21//10
f 22//11 24//11 23//11
f 24//12 26//12 25//12
f 26//13 28//13 27//13
f 28//14 30//14 29//14
f 30//15 32//15 31//15
f 32//16 34//16 33//16
f 34//17 36//17 35//17
f 36//18 38//18 37//18
f 38//19 40//19 39//19
f 40//20 42//20 41//20
f 42//21 44//21 43//21
f 44//22 46//22 45//22
f 46//23 48//23 47//23
f 48//24 50//24 49//24
f 50//25 52//25 51//25
f 52//26 54//26 53//26
f 54//27 56//27 55//27
f 56//28 58//28 57//28
f 58//29 60//29 59//29
f 60//30 62//30 61//30
f 2//31 64//31 6//31
f 64//31 62//31 6//31
f 62//31 60//31 6//31
f 60//31 58//31 6//31
f 58//31 56//31 6//31
f 56//31 54//31 6//31
f 54//31 52//31 6//31
f 52//31 50//31 6//31
f 50//31 48//31 6//31
f 48//31 46//31 6//31
f 46//31 44//31 6//31
f 26//31 30//31 28//31
f 26//31 32//31 30//31
f 18//31 22//31 20//31
f 8//31 12//31 10//31
f 8//31 14//31 12//31
f 8//31 16//31 14//31
f 6//31 16//31 8//31
f 6//31 44//31 16//31
f 16//31 44//31 18//31
f 18//31 44//31 22//31
f 44//31 42//31 22//31
f 42//31 40//31 22//31
f 40//31 38//31 22//31
f 38//31 36//31 34//31
f 38//31 34//31 32//31
f 38//31 32//31 26//31
f 22//31 38//31 24//31
f 38//31 26//31 24//31
f 64//32 2//32 1//32
f 62//33 64//33 63//33
f 3//34 5//34 63//34
f 5//34 7//34 63//34
f 7//34 9//34 63//34
f 9//34 11//34 63//34
f 11//34 13//34 63//34
f 13//34 15//34 63//34
f 15//34 17//34 63//34
f 17//34 19//34 63//34
f 19//34 21//34 63//34
f 21//34 23//34 63//34
f 23//34 25//34 63//34
f 25//34 27//34 29//34
f 63//34 25//34 29//34
f 63//34 29//34 31//34
f 61//34 63//34 31//34
f 59//34 61//34 57//34
f 61//34 31//34 57//34
f 31//34 33//34 57//34
f 33//34 35//34 57//34
f 35//34 37//34 57//34
f 37//34 39//34 57//34
f 39//34 41//34 57//34
f 41//34 43//34 57//34
f 43//34 45//34 57//34
f 45//34 47//34 57//34
f 47//34 49//34 57//34
f 49//34 51//34 57//34
f 51//34 53//34 55//34
f 57//34 51//34 55//34
