# Blender v2.68 (sub 0) OBJ File: ''
# www.blender.org
o Cone
v 0.000000 1.175884 -2.147878
v 0.419030 1.175884 -2.106607
v 0.821957 1.175884 -1.984380
v 1.193297 1.175884 -1.785895
v 1.518779 1.175884 -1.518779
v 1.785895 1.175884 -1.193297
v 1.984380 1.175884 -0.821957
v 2.106607 1.175884 -0.419030
v 2.147878 1.175884 -0.000000
v 0.000000 5.471639 0.000000
v 2.106607 1.175884 0.419030
v 1.984380 1.175884 0.821957
v 1.785895 1.175884 1.193297
v 1.518779 1.175884 1.518779
v 1.193297 1.175884 1.785895
v 0.821957 1.175884 1.984380
v 0.419030 1.175884 2.106607
v -0.000001 1.175884 2.147878
v -0.419031 1.175884 2.106607
v -0.821958 1.175884 1.984380
v -1.193298 1.175884 1.785894
v -1.518780 1.175884 1.518778
v -1.785896 1.175884 1.193296
v -1.984381 1.175884 0.821956
v -2.106607 1.175884 0.419028
v -2.147878 1.175884 -0.000002
v -2.106606 1.175884 -0.419032
v -1.984379 1.175884 -0.821959
v -1.785894 1.175884 -1.193299
v -1.518777 1.175884 -1.518781
v -1.193295 1.175884 -1.785897
v -0.821954 1.175884 -1.984381
v -0.419027 1.175884 -2.106607
vn -0.259887 0.445488 -0.856737
vn 0.087754 0.445488 -0.890977
vn -0.087753 0.445488 -0.890977
vn 0.259888 0.445488 -0.856737
vn -0.422034 0.445488 -0.789574
vn -0.567964 0.445488 -0.692067
vn -0.692066 0.445488 -0.567966
vn -0.789573 0.445488 -0.422037
vn -0.856737 0.445488 -0.259889
vn -0.890977 0.445488 -0.087754
vn -0.890977 0.445488 0.087753
vn -0.856737 0.445488 0.259887
vn -0.789574 0.445488 0.422035
vn -0.692067 0.445488 0.567964
vn -0.567965 0.445488 0.692066
vn -0.422036 0.445488 0.789573
vn -0.259889 0.445488 0.856737
vn -0.087754 0.445488 0.890977
vn 0.087753 0.445488 0.890977
vn 0.259888 0.445488 0.856737
vn 0.422036 0.445488 0.789573
vn 0.567965 0.445488 0.692067
vn 0.692067 0.445488 0.567965
vn 0.789573 0.445488 0.422036
vn 0.856737 0.445488 0.259888
vn 0.890977 0.445488 0.087753
vn 0.890977 0.445488 -0.087754
vn 0.856737 0.445488 -0.259889
vn 0.789573 0.445488 -0.422035
vn 0.692067 0.445488 -0.567965
vn 0.567965 0.445488 -0.692067
vn 0.422035 0.445488 -0.789573
vn 0.000000 -1.000000 -0.000000
s off
f 32//1 10//1 33//1
f 1//2 10//2 2//2
f 33//3 10//3 1//3
f 2//4 10//4 3//4
f 31//5 10//5 32//5
f 30//6 10//6 31//6
f 29//7 10//7 30//7
f 28//8 10//8 29//8
f 27//9 10//9 28//9
f 26//10 10//10 27//10
f 25//11 10//11 26//11
f 24//12 10//12 25//12
f 23//13 10//13 24//13
f 22//14 10//14 23//14
f 21//15 10//15 22//15
f 20//16 10//16 21//16
f 19//17 10//17 20//17
f 18//18 10//18 19//18
f 17//19 10//19 18//19
f 16//20 10//20 17//20
f 15//21 10//21 16//21
f 14//22 10//22 15//22
f 13//23 10//23 14//23
f 12//24 10//24 13//24
f 11//25 10//25 12//25
f 9//26 10//26 11//26
f 8//27 10//27 9//27
f 7//28 10//28 8//28
f 6//29 10//29 7//29
f 5//30 10//30 6//30
f 4//31 10//31 5//31
f 3//32 10//32 4//32
f 1//33 2//33 33//33
f 2//33 3//33 33//33
f 3//33 4//33 33//33
f 4//33 5//33 33//33
f 5//33 6//33 33//33
f 6//33 7//33 33//33
f 7//33 8//33 33//33
f 8//33 9//33 33//33
f 9//33 11//33 33//33
f 11//33 12//33 33//33
f 12//33 13//33 33//33
f 13//33 14//33 33//33
f 23//33 21//33 22//33
f 23//33 20//33 21//33
f 23//33 19//33 20//33
f 23//33 18//33 19//33
f 23//33 17//33 18//33
f 30//33 28//33 29//33
f 30//33 27//33 28//33
f 30//33 26//33 27//33
f 33//33 31//33 32//33
f 33//33 14//33 31//33
f 14//33 15//33 16//33
f 31//33 14//33 16//33
f 30//33 31//33 16//33
f 26//33 30//33 16//33
f 25//33 26//33 16//33
f 24//33 25//33 23//33
f 25//33 16//33 17//33
f 23//33 25//33 17//33
